# xmcd
# 
# Track frame offsets:
#     150
#     22560
#     47257
#     74732
#     91157
#     114115
#     139322
#     157680
# 
# Disc length: 2391
# 
# Revision: 1
# Processed by: cddbd v1.5.2PL0 Copyright (c) Steve Scherf et al.
# Submitted via: BonkEnc v1.0.8
# 
DISCID=52095508
DTITLE=Pressure Featuring Ronnie Laws  - Pressure featuring Ronnie Laws 
DYEAR=1979
DGENRE=Fusion
TTITLE0=That's The Thing To Do
TTITLE1=Hold On
TTITLE2=Fantastic Dreams
TTITLE3=Can You Feel It
TTITLE4=Shove It In The Oven
TTITLE5=Peaceful Stream
TTITLE6=Stay Together
TTITLE7=I Promise
EXTD=
EXTT0=
EXTT1=
EXTT2=
EXTT3=
EXTT4=
EXTT5=
EXTT6=
EXTT7=
PLAYORDER=
